<svg width="64" height="64" viewBox="0 0 64 64" fill="none" xmlns="http://www.w3.org/2000/svg">
  <defs>
    <linearGradient id="piggy-gradient" x1="0" y1="0" x2="64" y2="64" gradientUnits="userSpaceOnUse">
      <stop stop-color="#a855f7"/>
      <stop offset="1" stop-color="#3b82f6"/>
    </linearGradient>
  </defs>
  <circle cx="32" cy="32" r="32" fill="url(#piggy-gradient)"/>
  <g>
    <path d="M44 32c0 6.627-5.373 12-12 12s-12-5.373-12-12 5.373-12 12-12 12 5.373 12 12z" fill="#fff"/>
    <path d="M32 22c-5.523 0-10 4.477-10 10s4.477 10 10 10 10-4.477 10-10-4.477-10-10-10zm0 18c-4.418 0-8-3.582-8-8s3.582-8 8-8 8 3.582 8 8-3.582 8-8 8z" fill="#a855f7"/>
    <ellipse cx="36" cy="30" rx="2" ry="1" fill="#3b82f6"/>
    <ellipse cx="28" cy="30" rx="2" ry="1" fill="#3b82f6"/>
    <ellipse cx="32" cy="36" rx="3" ry="2" fill="#3b82f6"/>
  </g>
</svg> 